<mxfile host="app.diagrams.net" agent="Mozilla/5.0 (Windows NT 10.0; Win64; x64) AppleWebKit/537.36 (KHTML, like Gecko) Chrome/133.0.0.0 Safari/537.36" version="26.0.16" pages="3">
  <diagram name="Página-1" id="-IdWgxmrmdWZEqp3SVvu">
    <mxGraphModel dx="1434" dy="772" grid="1" gridSize="10" guides="1" tooltips="1" connect="1" arrows="1" fold="1" page="1" pageScale="1" pageWidth="827" pageHeight="1169" math="0" shadow="0">
      <root>
        <mxCell id="0" />
        <mxCell id="1" parent="0" />
        <mxCell id="BwxYkPkfteaB5pvLElHk-17" style="edgeStyle=orthogonalEdgeStyle;rounded=0;orthogonalLoop=1;jettySize=auto;html=1;exitX=0.5;exitY=0.5;exitDx=0;exitDy=0;exitPerimeter=0;" edge="1" parent="1" source="BwxYkPkfteaB5pvLElHk-15">
          <mxGeometry relative="1" as="geometry">
            <mxPoint x="390" y="80" as="targetPoint" />
          </mxGeometry>
        </mxCell>
        <mxCell id="BwxYkPkfteaB5pvLElHk-22" style="edgeStyle=orthogonalEdgeStyle;rounded=0;orthogonalLoop=1;jettySize=auto;html=1;exitX=0.5;exitY=0.5;exitDx=0;exitDy=0;exitPerimeter=0;entryX=0;entryY=0.5;entryDx=0;entryDy=0;" edge="1" parent="1" source="BwxYkPkfteaB5pvLElHk-15" target="BwxYkPkfteaB5pvLElHk-19">
          <mxGeometry relative="1" as="geometry">
            <Array as="points">
              <mxPoint x="210" y="120" />
              <mxPoint x="310" y="120" />
              <mxPoint x="310" y="190" />
            </Array>
          </mxGeometry>
        </mxCell>
        <mxCell id="BwxYkPkfteaB5pvLElHk-15" value="Recepcionista" style="shape=umlActor;verticalLabelPosition=bottom;verticalAlign=top;html=1;outlineConnect=0;fillColor=#fff2cc;strokeColor=#d6b656;" vertex="1" parent="1">
          <mxGeometry x="190" y="80" width="40" height="80" as="geometry" />
        </mxCell>
        <mxCell id="BwxYkPkfteaB5pvLElHk-18" value="Confirmar reserva" style="ellipse;whiteSpace=wrap;html=1;" vertex="1" parent="1">
          <mxGeometry x="400" y="40" width="120" height="80" as="geometry" />
        </mxCell>
        <mxCell id="BwxYkPkfteaB5pvLElHk-19" value="Gerenciar disponibilidade de quartos&lt;div&gt;&lt;br&gt;&lt;/div&gt;" style="ellipse;whiteSpace=wrap;html=1;" vertex="1" parent="1">
          <mxGeometry x="400" y="150" width="120" height="80" as="geometry" />
        </mxCell>
        <mxCell id="1PhtBn1Kn5e5YDhP082i-1" style="edgeStyle=orthogonalEdgeStyle;rounded=0;orthogonalLoop=1;jettySize=auto;html=1;exitX=0.5;exitY=0.5;exitDx=0;exitDy=0;exitPerimeter=0;entryX=0;entryY=0.5;entryDx=0;entryDy=0;" edge="1" parent="1" source="1PhtBn1Kn5e5YDhP082i-3" target="1PhtBn1Kn5e5YDhP082i-4">
          <mxGeometry relative="1" as="geometry">
            <mxPoint x="500" y="270" as="targetPoint" />
          </mxGeometry>
        </mxCell>
        <mxCell id="1PhtBn1Kn5e5YDhP082i-2" style="edgeStyle=orthogonalEdgeStyle;rounded=0;orthogonalLoop=1;jettySize=auto;html=1;exitX=0.5;exitY=0.5;exitDx=0;exitDy=0;exitPerimeter=0;entryX=0;entryY=0.5;entryDx=0;entryDy=0;" edge="1" parent="1" source="1PhtBn1Kn5e5YDhP082i-3" target="1PhtBn1Kn5e5YDhP082i-5">
          <mxGeometry relative="1" as="geometry">
            <mxPoint x="400" y="350" as="targetPoint" />
          </mxGeometry>
        </mxCell>
        <mxCell id="1PhtBn1Kn5e5YDhP082i-3" value="Cliente" style="shape=umlActor;verticalLabelPosition=bottom;verticalAlign=top;html=1;outlineConnect=0;fillColor=#d5e8d4;strokeColor=#82b366;" vertex="1" parent="1">
          <mxGeometry x="190" y="270" width="40" height="80" as="geometry" />
        </mxCell>
        <mxCell id="1PhtBn1Kn5e5YDhP082i-4" value="Fazer reservas" style="ellipse;whiteSpace=wrap;html=1;" vertex="1" parent="1">
          <mxGeometry x="400" y="240" width="120" height="80" as="geometry" />
        </mxCell>
        <mxCell id="1PhtBn1Kn5e5YDhP082i-5" value="Cancelar reserva" style="ellipse;whiteSpace=wrap;html=1;" vertex="1" parent="1">
          <mxGeometry x="400" y="330" width="120" height="80" as="geometry" />
        </mxCell>
      </root>
    </mxGraphModel>
  </diagram>
  <diagram id="KXouE_qUKuUI_Ier25zK" name="Página-2">
    <mxGraphModel dx="819" dy="441" grid="1" gridSize="10" guides="1" tooltips="1" connect="1" arrows="1" fold="1" page="1" pageScale="1" pageWidth="827" pageHeight="1169" math="0" shadow="0">
      <root>
        <mxCell id="0" />
        <mxCell id="1" parent="0" />
        <mxCell id="qqWXLzg1MvQcj8f4g9ZV-1" value="" style="whiteSpace=wrap;html=1;aspect=fixed;" vertex="1" parent="1">
          <mxGeometry x="160" y="410" width="520" height="520" as="geometry" />
        </mxCell>
        <mxCell id="EF-VqIz4T9vd6OmFMSw3-6" value="Cliente" style="shape=umlActor;verticalLabelPosition=bottom;verticalAlign=top;html=1;outlineConnect=0;fillColor=#d5e8d4;strokeColor=#82b366;" vertex="1" parent="1">
          <mxGeometry x="120" y="505" width="40" height="80" as="geometry" />
        </mxCell>
        <mxCell id="JeJWxVxML6MqcKkYs8eJ-3" value="Sistema" style="shape=umlActor;verticalLabelPosition=bottom;verticalAlign=top;html=1;outlineConnect=0;fillColor=#dae8fc;strokeColor=#6c8ebf;" vertex="1" parent="1">
          <mxGeometry x="680" y="650" width="40" height="80" as="geometry" />
        </mxCell>
        <mxCell id="4nWjrGyeYkdJ_R6ryeZq-1" value="&lt;font size=&quot;1&quot;&gt;Navegar pelo catálogo&lt;/font&gt;" style="ellipse;whiteSpace=wrap;html=1;" vertex="1" parent="1">
          <mxGeometry x="220" y="455" width="70" height="50" as="geometry" />
        </mxCell>
        <mxCell id="4nWjrGyeYkdJ_R6ryeZq-2" value="&lt;font size=&quot;1&quot;&gt;Colocar item no carrinho&lt;/font&gt;" style="ellipse;whiteSpace=wrap;html=1;" vertex="1" parent="1">
          <mxGeometry x="220" y="530" width="70" height="50" as="geometry" />
        </mxCell>
        <mxCell id="4nWjrGyeYkdJ_R6ryeZq-3" value="&lt;font size=&quot;1&quot;&gt;Finalizar compra&lt;/font&gt;" style="ellipse;whiteSpace=wrap;html=1;" vertex="1" parent="1">
          <mxGeometry x="220" y="670" width="70" height="50" as="geometry" />
        </mxCell>
        <mxCell id="4nWjrGyeYkdJ_R6ryeZq-4" value="&lt;font size=&quot;1&quot;&gt;Informar endereço&lt;/font&gt;" style="ellipse;whiteSpace=wrap;html=1;" vertex="1" parent="1">
          <mxGeometry x="220" y="600" width="70" height="50" as="geometry" />
        </mxCell>
        <mxCell id="4nWjrGyeYkdJ_R6ryeZq-5" value="&lt;font size=&quot;1&quot;&gt;Preencher dados do cartão de crédito&lt;/font&gt;" style="ellipse;whiteSpace=wrap;html=1;" vertex="1" parent="1">
          <mxGeometry x="340" y="590" width="86" height="70" as="geometry" />
        </mxCell>
        <mxCell id="4nWjrGyeYkdJ_R6ryeZq-7" value="&lt;font size=&quot;1&quot;&gt;Verificar dados do cartão&lt;/font&gt;" style="ellipse;whiteSpace=wrap;html=1;" vertex="1" parent="1">
          <mxGeometry x="470" y="585" width="70" height="50" as="geometry" />
        </mxCell>
        <mxCell id="4nWjrGyeYkdJ_R6ryeZq-8" value="&lt;font size=&quot;1&quot;&gt;Faturar compra&lt;/font&gt;" style="ellipse;whiteSpace=wrap;html=1;" vertex="1" parent="1">
          <mxGeometry x="470" y="670" width="70" height="50" as="geometry" />
        </mxCell>
        <mxCell id="4nWjrGyeYkdJ_R6ryeZq-9" value="&lt;font size=&quot;1&quot;&gt;Enviar e-mail&lt;/font&gt;" style="ellipse;whiteSpace=wrap;html=1;" vertex="1" parent="1">
          <mxGeometry x="470" y="750" width="70" height="50" as="geometry" />
        </mxCell>
        <mxCell id="4nWjrGyeYkdJ_R6ryeZq-12" value="" style="endArrow=classic;html=1;rounded=0;entryX=1.031;entryY=0.397;entryDx=0;entryDy=0;entryPerimeter=0;" edge="1" parent="1" target="4nWjrGyeYkdJ_R6ryeZq-9">
          <mxGeometry width="50" height="50" relative="1" as="geometry">
            <mxPoint x="680" y="720" as="sourcePoint" />
            <mxPoint x="550" y="720" as="targetPoint" />
            <Array as="points">
              <mxPoint x="670" y="720" />
            </Array>
          </mxGeometry>
        </mxCell>
        <mxCell id="4nWjrGyeYkdJ_R6ryeZq-16" value="" style="endArrow=classic;html=1;rounded=0;entryX=1;entryY=0.5;entryDx=0;entryDy=0;" edge="1" parent="1" target="4nWjrGyeYkdJ_R6ryeZq-8">
          <mxGeometry width="50" height="50" relative="1" as="geometry">
            <mxPoint x="670" y="695" as="sourcePoint" />
            <mxPoint x="550" y="660" as="targetPoint" />
            <Array as="points">
              <mxPoint x="610" y="695" />
            </Array>
          </mxGeometry>
        </mxCell>
        <mxCell id="4nWjrGyeYkdJ_R6ryeZq-17" value="" style="endArrow=classic;html=1;rounded=0;entryX=1;entryY=0.5;entryDx=0;entryDy=0;" edge="1" parent="1" target="4nWjrGyeYkdJ_R6ryeZq-7">
          <mxGeometry width="50" height="50" relative="1" as="geometry">
            <mxPoint x="670" y="670" as="sourcePoint" />
            <mxPoint x="550" y="590" as="targetPoint" />
            <Array as="points" />
          </mxGeometry>
        </mxCell>
        <mxCell id="4nWjrGyeYkdJ_R6ryeZq-18" value="" style="endArrow=classic;html=1;rounded=0;entryX=0;entryY=0.5;entryDx=0;entryDy=0;" edge="1" parent="1">
          <mxGeometry width="50" height="50" relative="1" as="geometry">
            <mxPoint x="421" y="610" as="sourcePoint" />
            <mxPoint x="470.9999999999977" y="610" as="targetPoint" />
          </mxGeometry>
        </mxCell>
        <mxCell id="4nWjrGyeYkdJ_R6ryeZq-19" value="" style="endArrow=classic;html=1;rounded=0;" edge="1" parent="1" target="4nWjrGyeYkdJ_R6ryeZq-1">
          <mxGeometry width="50" height="50" relative="1" as="geometry">
            <mxPoint x="160" y="550" as="sourcePoint" />
            <mxPoint x="450" y="600" as="targetPoint" />
          </mxGeometry>
        </mxCell>
        <mxCell id="4nWjrGyeYkdJ_R6ryeZq-20" value="" style="endArrow=classic;html=1;rounded=0;entryX=0;entryY=0.4;entryDx=0;entryDy=0;entryPerimeter=0;" edge="1" parent="1" target="4nWjrGyeYkdJ_R6ryeZq-2">
          <mxGeometry width="50" height="50" relative="1" as="geometry">
            <mxPoint x="160" y="550" as="sourcePoint" />
            <mxPoint x="210" y="550" as="targetPoint" />
          </mxGeometry>
        </mxCell>
        <mxCell id="4nWjrGyeYkdJ_R6ryeZq-21" value="" style="endArrow=classic;html=1;rounded=0;entryX=0.5;entryY=1;entryDx=0;entryDy=0;exitX=0.5;exitY=0;exitDx=0;exitDy=0;" edge="1" parent="1" source="4nWjrGyeYkdJ_R6ryeZq-3" target="4nWjrGyeYkdJ_R6ryeZq-4">
          <mxGeometry width="50" height="50" relative="1" as="geometry">
            <mxPoint x="160" y="550" as="sourcePoint" />
            <mxPoint x="220" y="560" as="targetPoint" />
          </mxGeometry>
        </mxCell>
        <mxCell id="4nWjrGyeYkdJ_R6ryeZq-22" value="" style="endArrow=classic;html=1;rounded=0;entryX=0;entryY=0.5;entryDx=0;entryDy=0;" edge="1" parent="1" target="4nWjrGyeYkdJ_R6ryeZq-3">
          <mxGeometry width="50" height="50" relative="1" as="geometry">
            <mxPoint x="160" y="550" as="sourcePoint" />
            <mxPoint x="190" y="620" as="targetPoint" />
          </mxGeometry>
        </mxCell>
        <mxCell id="4nWjrGyeYkdJ_R6ryeZq-23" value="" style="endArrow=classic;html=1;rounded=0;exitX=1;exitY=0;exitDx=0;exitDy=0;entryX=-0.015;entryY=0.561;entryDx=0;entryDy=0;entryPerimeter=0;" edge="1" parent="1" source="4nWjrGyeYkdJ_R6ryeZq-3" target="4nWjrGyeYkdJ_R6ryeZq-5">
          <mxGeometry width="50" height="50" relative="1" as="geometry">
            <mxPoint x="278" y="680" as="sourcePoint" />
            <mxPoint x="328" y="630" as="targetPoint" />
            <Array as="points" />
          </mxGeometry>
        </mxCell>
        <mxCell id="4nWjrGyeYkdJ_R6ryeZq-24" value="" style="endArrow=classic;html=1;rounded=0;exitX=1;exitY=0.5;exitDx=0;exitDy=0;entryX=0;entryY=0.5;entryDx=0;entryDy=0;" edge="1" parent="1" source="4nWjrGyeYkdJ_R6ryeZq-3" target="4nWjrGyeYkdJ_R6ryeZq-8">
          <mxGeometry width="50" height="50" relative="1" as="geometry">
            <mxPoint x="389" y="720" as="sourcePoint" />
            <mxPoint x="439" y="670" as="targetPoint" />
            <Array as="points" />
          </mxGeometry>
        </mxCell>
      </root>
    </mxGraphModel>
  </diagram>
  <diagram id="wVw2RCqWjOGaPUzD60Uh" name="Página-3">
    <mxGraphModel dx="1687" dy="908" grid="1" gridSize="10" guides="1" tooltips="1" connect="1" arrows="1" fold="1" page="1" pageScale="1" pageWidth="827" pageHeight="1169" math="0" shadow="0">
      <root>
        <mxCell id="0" />
        <mxCell id="1" parent="0" />
        <mxCell id="a48MInh6Thi-dWbWqh0t-4" value="" style="whiteSpace=wrap;html=1;aspect=fixed;" vertex="1" parent="1">
          <mxGeometry x="30" y="20" width="910" height="910" as="geometry" />
        </mxCell>
        <mxCell id="a48MInh6Thi-dWbWqh0t-2" value="Cliente" style="shape=umlActor;verticalLabelPosition=bottom;verticalAlign=top;html=1;outlineConnect=0;" vertex="1" parent="1">
          <mxGeometry x="990" y="790" width="30" height="70" as="geometry" />
        </mxCell>
        <mxCell id="a48MInh6Thi-dWbWqh0t-3" value="Sistema" style="shape=umlActor;verticalLabelPosition=bottom;verticalAlign=top;html=1;outlineConnect=0;" vertex="1" parent="1">
          <mxGeometry x="1600" y="795" width="30" height="65" as="geometry" />
        </mxCell>
        <mxCell id="a48MInh6Thi-dWbWqh0t-13" value="" style="strokeWidth=2;html=1;shape=mxgraph.flowchart.terminator;whiteSpace=wrap;" vertex="1" parent="1">
          <mxGeometry x="1300" y="720" width="120" height="60" as="geometry" />
        </mxCell>
        <mxCell id="a48MInh6Thi-dWbWqh0t-14" value="Sistema de reserva de hotel" style="shape=umlActor;verticalLabelPosition=bottom;verticalAlign=top;html=1;outlineConnect=0;" vertex="1" parent="1">
          <mxGeometry x="1100" y="790" width="30" height="70" as="geometry" />
        </mxCell>
        <mxCell id="a48MInh6Thi-dWbWqh0t-15" value="Sistema de pagamentos" style="shape=umlActor;verticalLabelPosition=bottom;verticalAlign=top;html=1;outlineConnect=0;" vertex="1" parent="1">
          <mxGeometry x="1250" y="790" width="30" height="70" as="geometry" />
        </mxCell>
        <mxCell id="a48MInh6Thi-dWbWqh0t-16" value="Pessoal do hotel" style="shape=umlActor;verticalLabelPosition=bottom;verticalAlign=top;html=1;outlineConnect=0;" vertex="1" parent="1">
          <mxGeometry x="1370" y="790" width="30" height="70" as="geometry" />
        </mxCell>
        <mxCell id="a48MInh6Thi-dWbWqh0t-17" value="Fornecedor de serviços" style="shape=umlActor;verticalLabelPosition=bottom;verticalAlign=top;html=1;outlineConnect=0;" vertex="1" parent="1">
          <mxGeometry x="1490" y="790" width="30" height="70" as="geometry" />
        </mxCell>
        <mxCell id="a48MInh6Thi-dWbWqh0t-19" value="Casos de uso,&amp;nbsp; Associação dos blocos, sistema, atores" style="text;html=1;align=center;verticalAlign=middle;whiteSpace=wrap;rounded=0;" vertex="1" parent="1">
          <mxGeometry x="980" y="700" width="300" height="30" as="geometry" />
        </mxCell>
        <mxCell id="a48MInh6Thi-dWbWqh0t-20" value="&#xa;&lt;h3 data-end=&quot;183&quot; data-start=&quot;138&quot;&gt;&lt;strong data-end=&quot;183&quot; data-start=&quot;142&quot;&gt;Diagrama de Fluxo de Reserva de Hotel&lt;/strong&gt;&lt;/h3&gt;&lt;p data-end=&quot;196&quot; data-start=&quot;185&quot;&gt;&lt;strong data-end=&quot;196&quot; data-start=&quot;185&quot;&gt;Atores:&lt;/strong&gt;&lt;/p&gt;&lt;ol data-end=&quot;345&quot; data-start=&quot;197&quot;&gt;&lt;li data-end=&quot;211&quot; data-start=&quot;197&quot;&gt;&lt;strong data-end=&quot;211&quot; data-start=&quot;200&quot;&gt;Cliente&lt;/strong&gt;&lt;/li&gt;&lt;li data-end=&quot;247&quot; data-start=&quot;212&quot;&gt;&lt;strong data-end=&quot;247&quot; data-start=&quot;215&quot;&gt;Sistema de Reservas do Hotel&lt;/strong&gt;&lt;/li&gt;&lt;li data-end=&quot;276&quot; data-start=&quot;248&quot;&gt;&lt;strong data-end=&quot;276&quot; data-start=&quot;251&quot;&gt;Sistema de Pagamentos&lt;/strong&gt;&lt;/li&gt;&lt;li data-end=&quot;300&quot; data-start=&quot;277&quot;&gt;&lt;strong data-end=&quot;300&quot; data-start=&quot;280&quot;&gt;Pessoal do Hotel&lt;/strong&gt;&lt;/li&gt;&lt;li data-end=&quot;345&quot; data-start=&quot;301&quot;&gt;&lt;strong data-end=&quot;345&quot; data-start=&quot;304&quot;&gt;Fornecedor de Serviços (se aplicável)&lt;/strong&gt;&lt;/li&gt;&lt;/ol&gt;&lt;p data-end=&quot;360&quot; data-start=&quot;347&quot;&gt;&lt;strong data-end=&quot;360&quot; data-start=&quot;347&quot;&gt;Processo:&lt;/strong&gt;&lt;/p&gt;&lt;ol data-end=&quot;1599&quot; data-start=&quot;362&quot;&gt;&lt;li data-end=&quot;486&quot; data-start=&quot;362&quot;&gt;&lt;p data-end=&quot;410&quot; data-start=&quot;365&quot;&gt;&lt;strong data-end=&quot;376&quot; data-start=&quot;365&quot;&gt;Cliente&lt;/strong&gt; inicia o processo de &lt;strong data-end=&quot;409&quot; data-start=&quot;398&quot;&gt;Reserva&lt;/strong&gt;.&lt;/p&gt;&lt;ul data-end=&quot;486&quot; data-start=&quot;414&quot;&gt;&lt;li data-end=&quot;486&quot; data-start=&quot;414&quot;&gt;O &lt;strong data-end=&quot;429&quot; data-start=&quot;418&quot;&gt;Cliente&lt;/strong&gt; seleciona as &lt;strong data-end=&quot;452&quot; data-start=&quot;443&quot;&gt;datas&lt;/strong&gt; para a reserva (entrada e saída).&lt;/li&gt;&lt;/ul&gt;&lt;/li&gt;&lt;li data-end=&quot;732&quot; data-start=&quot;488&quot;&gt;&lt;p data-end=&quot;595&quot; data-start=&quot;491&quot;&gt;O &lt;strong data-end=&quot;525&quot; data-start=&quot;493&quot;&gt;Sistema de Reservas do Hotel&lt;/strong&gt; consulta a &lt;strong data-end=&quot;556&quot; data-start=&quot;537&quot;&gt;disponibilidade&lt;/strong&gt; de quartos para as datas selecionadas.&lt;/p&gt;&lt;ul data-end=&quot;732&quot; data-start=&quot;599&quot;&gt;&lt;li data-end=&quot;732&quot; data-start=&quot;599&quot;&gt;Se houver quartos disponíveis, o &lt;strong data-end=&quot;657&quot; data-start=&quot;634&quot;&gt;Sistema de Reservas&lt;/strong&gt; mostra as opções disponíveis (tipos de quartos, preço, comodidades, etc.).&lt;/li&gt;&lt;/ul&gt;&lt;/li&gt;&lt;li data-end=&quot;792&quot; data-start=&quot;734&quot;&gt;&lt;p data-end=&quot;792&quot; data-start=&quot;737&quot;&gt;O &lt;strong data-end=&quot;750&quot; data-start=&quot;739&quot;&gt;Cliente&lt;/strong&gt; escolhe o &lt;strong data-end=&quot;771&quot; data-start=&quot;761&quot;&gt;quarto&lt;/strong&gt; que deseja reservar.&lt;/p&gt;&lt;/li&gt;&lt;li data-end=&quot;874&quot; data-start=&quot;794&quot;&gt;&lt;p data-end=&quot;874&quot; data-start=&quot;797&quot;&gt;O &lt;strong data-end=&quot;810&quot; data-start=&quot;799&quot;&gt;Cliente&lt;/strong&gt; informa seus &lt;strong data-end=&quot;842&quot; data-start=&quot;824&quot;&gt;dados pessoais&lt;/strong&gt; (nome, e-mail, telefone, etc.).&lt;/p&gt;&lt;/li&gt;&lt;li data-end=&quot;962&quot; data-start=&quot;876&quot;&gt;&lt;p data-end=&quot;962&quot; data-start=&quot;879&quot;&gt;O &lt;strong data-end=&quot;892&quot; data-start=&quot;881&quot;&gt;Cliente&lt;/strong&gt; escolhe um &lt;strong data-end=&quot;927&quot; data-start=&quot;904&quot;&gt;método de pagamento&lt;/strong&gt; (cartão de crédito, débito, etc.).&lt;/p&gt;&lt;/li&gt;&lt;li data-end=&quot;1035&quot; data-start=&quot;964&quot;&gt;&lt;p data-end=&quot;1035&quot; data-start=&quot;967&quot;&gt;O &lt;strong data-end=&quot;994&quot; data-start=&quot;969&quot;&gt;Sistema de Pagamentos&lt;/strong&gt; processa o &lt;strong data-end=&quot;1019&quot; data-start=&quot;1006&quot;&gt;pagamento&lt;/strong&gt; do &lt;strong data-end=&quot;1034&quot; data-start=&quot;1023&quot;&gt;Cliente&lt;/strong&gt;.&lt;/p&gt;&lt;/li&gt;&lt;li data-end=&quot;1130&quot; data-start=&quot;1037&quot;&gt;&lt;p data-end=&quot;1130&quot; data-start=&quot;1040&quot;&gt;O &lt;strong data-end=&quot;1074&quot; data-start=&quot;1042&quot;&gt;Sistema de Reservas do Hotel&lt;/strong&gt; confirma a &lt;strong data-end=&quot;1097&quot; data-start=&quot;1086&quot;&gt;reserva&lt;/strong&gt; após o pagamento ser processado.&lt;/p&gt;&lt;/li&gt;&lt;li data-end=&quot;1258&quot; data-start=&quot;1132&quot;&gt;&lt;p data-end=&quot;1258&quot; data-start=&quot;1135&quot;&gt;O &lt;strong data-end=&quot;1169&quot; data-start=&quot;1137&quot;&gt;Sistema de Reservas do Hotel&lt;/strong&gt; envia a &lt;strong data-end=&quot;1193&quot; data-start=&quot;1178&quot;&gt;confirmação&lt;/strong&gt; da reserva para o &lt;strong data-end=&quot;1223&quot; data-start=&quot;1212&quot;&gt;Cliente&lt;/strong&gt; (por e-mail, SMS ou outros meios).&lt;/p&gt;&lt;/li&gt;&lt;li data-end=&quot;1416&quot; data-start=&quot;1260&quot;&gt;&lt;p data-end=&quot;1416&quot; data-start=&quot;1263&quot;&gt;Se necessário, o &lt;strong data-end=&quot;1300&quot; data-start=&quot;1280&quot;&gt;Pessoal do Hotel&lt;/strong&gt; pode auxiliar no &lt;strong data-end=&quot;1344&quot; data-start=&quot;1318&quot;&gt;atendimento ao cliente&lt;/strong&gt; ou em situações especiais que não podem ser resolvidas automaticamente.&lt;/p&gt;&lt;/li&gt;&lt;li data-end=&quot;1599&quot; data-start=&quot;1418&quot;&gt;&lt;p data-end=&quot;1599&quot; data-start=&quot;1422&quot;&gt;Se a reserva foi feita por meio de plataformas de terceiros (&lt;strong data-end=&quot;1509&quot; data-start=&quot;1483&quot;&gt;Fornecedor de Serviços&lt;/strong&gt;), essas plataformas também participam do processo, gerenciando as informações e reservas.&lt;/p&gt;&lt;/li&gt;&lt;/ol&gt;&#xa;&#xa;" style="text;html=1;align=center;verticalAlign=middle;whiteSpace=wrap;rounded=0;" vertex="1" parent="1">
          <mxGeometry x="980" y="70" width="640" height="600" as="geometry" />
        </mxCell>
      </root>
    </mxGraphModel>
  </diagram>
</mxfile>
